G04 #@! TF.GenerationSoftware,KiCad,Pcbnew,7.0.6-7.0.6~ubuntu23.04.1*
G04 #@! TF.CreationDate,2023-07-23T13:01:15+01:00*
G04 #@! TF.ProjectId,WIZnet adapter,57495a6e-6574-4206-9164-61707465722e,rev?*
G04 #@! TF.SameCoordinates,Original*
G04 #@! TF.FileFunction,Legend,Top*
G04 #@! TF.FilePolarity,Positive*
%FSLAX46Y46*%
G04 Gerber Fmt 4.6, Leading zero omitted, Abs format (unit mm)*
G04 Created by KiCad (PCBNEW 7.0.6-7.0.6~ubuntu23.04.1) date 2023-07-23 13:01:15*
%MOMM*%
%LPD*%
G01*
G04 APERTURE LIST*
%ADD10C,0.150000*%
%ADD11C,0.120000*%
G04 APERTURE END LIST*
D10*
X109394666Y-63164819D02*
X109394666Y-63879104D01*
X109394666Y-63879104D02*
X109347047Y-64021961D01*
X109347047Y-64021961D02*
X109251809Y-64117200D01*
X109251809Y-64117200D02*
X109108952Y-64164819D01*
X109108952Y-64164819D02*
X109013714Y-64164819D01*
X110394666Y-64164819D02*
X109823238Y-64164819D01*
X110108952Y-64164819D02*
X110108952Y-63164819D01*
X110108952Y-63164819D02*
X110013714Y-63307676D01*
X110013714Y-63307676D02*
X109918476Y-63402914D01*
X109918476Y-63402914D02*
X109823238Y-63450533D01*
X137334666Y-63164819D02*
X137334666Y-63879104D01*
X137334666Y-63879104D02*
X137287047Y-64021961D01*
X137287047Y-64021961D02*
X137191809Y-64117200D01*
X137191809Y-64117200D02*
X137048952Y-64164819D01*
X137048952Y-64164819D02*
X136953714Y-64164819D01*
X137763238Y-63260057D02*
X137810857Y-63212438D01*
X137810857Y-63212438D02*
X137906095Y-63164819D01*
X137906095Y-63164819D02*
X138144190Y-63164819D01*
X138144190Y-63164819D02*
X138239428Y-63212438D01*
X138239428Y-63212438D02*
X138287047Y-63260057D01*
X138287047Y-63260057D02*
X138334666Y-63355295D01*
X138334666Y-63355295D02*
X138334666Y-63450533D01*
X138334666Y-63450533D02*
X138287047Y-63593390D01*
X138287047Y-63593390D02*
X137715619Y-64164819D01*
X137715619Y-64164819D02*
X138334666Y-64164819D01*
X123364666Y-50972819D02*
X123364666Y-51687104D01*
X123364666Y-51687104D02*
X123317047Y-51829961D01*
X123317047Y-51829961D02*
X123221809Y-51925200D01*
X123221809Y-51925200D02*
X123078952Y-51972819D01*
X123078952Y-51972819D02*
X122983714Y-51972819D01*
X123745619Y-50972819D02*
X124364666Y-50972819D01*
X124364666Y-50972819D02*
X124031333Y-51353771D01*
X124031333Y-51353771D02*
X124174190Y-51353771D01*
X124174190Y-51353771D02*
X124269428Y-51401390D01*
X124269428Y-51401390D02*
X124317047Y-51449009D01*
X124317047Y-51449009D02*
X124364666Y-51544247D01*
X124364666Y-51544247D02*
X124364666Y-51782342D01*
X124364666Y-51782342D02*
X124317047Y-51877580D01*
X124317047Y-51877580D02*
X124269428Y-51925200D01*
X124269428Y-51925200D02*
X124174190Y-51972819D01*
X124174190Y-51972819D02*
X123888476Y-51972819D01*
X123888476Y-51972819D02*
X123793238Y-51925200D01*
X123793238Y-51925200D02*
X123745619Y-51877580D01*
X119142476Y-59382819D02*
X119142476Y-58382819D01*
X119142476Y-58382819D02*
X119380571Y-58382819D01*
X119380571Y-58382819D02*
X119523428Y-58430438D01*
X119523428Y-58430438D02*
X119618666Y-58525676D01*
X119618666Y-58525676D02*
X119666285Y-58620914D01*
X119666285Y-58620914D02*
X119713904Y-58811390D01*
X119713904Y-58811390D02*
X119713904Y-58954247D01*
X119713904Y-58954247D02*
X119666285Y-59144723D01*
X119666285Y-59144723D02*
X119618666Y-59239961D01*
X119618666Y-59239961D02*
X119523428Y-59335200D01*
X119523428Y-59335200D02*
X119380571Y-59382819D01*
X119380571Y-59382819D02*
X119142476Y-59382819D01*
X120142476Y-59382819D02*
X120142476Y-58382819D01*
X120618666Y-59382819D02*
X120618666Y-58382819D01*
X120618666Y-58382819D02*
X120999618Y-58382819D01*
X120999618Y-58382819D02*
X121094856Y-58430438D01*
X121094856Y-58430438D02*
X121142475Y-58478057D01*
X121142475Y-58478057D02*
X121190094Y-58573295D01*
X121190094Y-58573295D02*
X121190094Y-58716152D01*
X121190094Y-58716152D02*
X121142475Y-58811390D01*
X121142475Y-58811390D02*
X121094856Y-58859009D01*
X121094856Y-58859009D02*
X120999618Y-58906628D01*
X120999618Y-58906628D02*
X120618666Y-58906628D01*
X122380571Y-58716152D02*
X122380571Y-59716152D01*
X122380571Y-58763771D02*
X122475809Y-58716152D01*
X122475809Y-58716152D02*
X122666285Y-58716152D01*
X122666285Y-58716152D02*
X122761523Y-58763771D01*
X122761523Y-58763771D02*
X122809142Y-58811390D01*
X122809142Y-58811390D02*
X122856761Y-58906628D01*
X122856761Y-58906628D02*
X122856761Y-59192342D01*
X122856761Y-59192342D02*
X122809142Y-59287580D01*
X122809142Y-59287580D02*
X122761523Y-59335200D01*
X122761523Y-59335200D02*
X122666285Y-59382819D01*
X122666285Y-59382819D02*
X122475809Y-59382819D01*
X122475809Y-59382819D02*
X122380571Y-59335200D01*
X123285333Y-59382819D02*
X123285333Y-58716152D01*
X123285333Y-58382819D02*
X123237714Y-58430438D01*
X123237714Y-58430438D02*
X123285333Y-58478057D01*
X123285333Y-58478057D02*
X123332952Y-58430438D01*
X123332952Y-58430438D02*
X123285333Y-58382819D01*
X123285333Y-58382819D02*
X123285333Y-58478057D01*
X123761523Y-58716152D02*
X123761523Y-59382819D01*
X123761523Y-58811390D02*
X123809142Y-58763771D01*
X123809142Y-58763771D02*
X123904380Y-58716152D01*
X123904380Y-58716152D02*
X124047237Y-58716152D01*
X124047237Y-58716152D02*
X124142475Y-58763771D01*
X124142475Y-58763771D02*
X124190094Y-58859009D01*
X124190094Y-58859009D02*
X124190094Y-59382819D01*
X125856761Y-59382819D02*
X125856761Y-58859009D01*
X125856761Y-58859009D02*
X125809142Y-58763771D01*
X125809142Y-58763771D02*
X125713904Y-58716152D01*
X125713904Y-58716152D02*
X125523428Y-58716152D01*
X125523428Y-58716152D02*
X125428190Y-58763771D01*
X125856761Y-59335200D02*
X125761523Y-59382819D01*
X125761523Y-59382819D02*
X125523428Y-59382819D01*
X125523428Y-59382819D02*
X125428190Y-59335200D01*
X125428190Y-59335200D02*
X125380571Y-59239961D01*
X125380571Y-59239961D02*
X125380571Y-59144723D01*
X125380571Y-59144723D02*
X125428190Y-59049485D01*
X125428190Y-59049485D02*
X125523428Y-59001866D01*
X125523428Y-59001866D02*
X125761523Y-59001866D01*
X125761523Y-59001866D02*
X125856761Y-58954247D01*
X126332952Y-59382819D02*
X126332952Y-58716152D01*
X126332952Y-58906628D02*
X126380571Y-58811390D01*
X126380571Y-58811390D02*
X126428190Y-58763771D01*
X126428190Y-58763771D02*
X126523428Y-58716152D01*
X126523428Y-58716152D02*
X126618666Y-58716152D01*
X126952000Y-59382819D02*
X126952000Y-58716152D01*
X126952000Y-58906628D02*
X126999619Y-58811390D01*
X126999619Y-58811390D02*
X127047238Y-58763771D01*
X127047238Y-58763771D02*
X127142476Y-58716152D01*
X127142476Y-58716152D02*
X127237714Y-58716152D01*
X127999619Y-59382819D02*
X127999619Y-58859009D01*
X127999619Y-58859009D02*
X127952000Y-58763771D01*
X127952000Y-58763771D02*
X127856762Y-58716152D01*
X127856762Y-58716152D02*
X127666286Y-58716152D01*
X127666286Y-58716152D02*
X127571048Y-58763771D01*
X127999619Y-59335200D02*
X127904381Y-59382819D01*
X127904381Y-59382819D02*
X127666286Y-59382819D01*
X127666286Y-59382819D02*
X127571048Y-59335200D01*
X127571048Y-59335200D02*
X127523429Y-59239961D01*
X127523429Y-59239961D02*
X127523429Y-59144723D01*
X127523429Y-59144723D02*
X127571048Y-59049485D01*
X127571048Y-59049485D02*
X127666286Y-59001866D01*
X127666286Y-59001866D02*
X127904381Y-59001866D01*
X127904381Y-59001866D02*
X127999619Y-58954247D01*
X128380572Y-58716152D02*
X128618667Y-59382819D01*
X128856762Y-58716152D02*
X128618667Y-59382819D01*
X128618667Y-59382819D02*
X128523429Y-59620914D01*
X128523429Y-59620914D02*
X128475810Y-59668533D01*
X128475810Y-59668533D02*
X128380572Y-59716152D01*
D11*
X107128000Y-100390000D02*
X112328000Y-100390000D01*
X107128000Y-67310000D02*
X107128000Y-100390000D01*
X112328000Y-64710000D02*
X112328000Y-100390000D01*
X107128000Y-67310000D02*
X109728000Y-67310000D01*
X109728000Y-67310000D02*
X109728000Y-64710000D01*
X109728000Y-64710000D02*
X112328000Y-64710000D01*
X107128000Y-66040000D02*
X107128000Y-64710000D01*
X107128000Y-64710000D02*
X108458000Y-64710000D01*
X135068000Y-64710000D02*
X136398000Y-64710000D01*
X135068000Y-66040000D02*
X135068000Y-64710000D01*
X137668000Y-64710000D02*
X140268000Y-64710000D01*
X137668000Y-67310000D02*
X137668000Y-64710000D01*
X135068000Y-67310000D02*
X137668000Y-67310000D01*
X140268000Y-64710000D02*
X140268000Y-100390000D01*
X135068000Y-67310000D02*
X135068000Y-100390000D01*
X135068000Y-100390000D02*
X140268000Y-100390000D01*
X122698000Y-52518000D02*
G75*
G03*
X124698000Y-52518000I1000000J0D01*
G01*
X122698000Y-52518000D02*
X117238000Y-52518000D01*
X117238000Y-52518000D02*
X117238000Y-113598000D01*
X117238000Y-113598000D02*
X130158000Y-113598000D01*
X130158000Y-113598000D02*
X130158000Y-52518000D01*
X130158000Y-52518000D02*
X124698000Y-52518000D01*
M02*
