G04 #@! TF.GenerationSoftware,KiCad,Pcbnew,7.0.6-7.0.6~ubuntu23.04.1*
G04 #@! TF.CreationDate,2023-07-23T13:01:15+01:00*
G04 #@! TF.ProjectId,WIZnet adapter,57495a6e-6574-4206-9164-61707465722e,rev?*
G04 #@! TF.SameCoordinates,Original*
G04 #@! TF.FileFunction,Copper,L2,Bot*
G04 #@! TF.FilePolarity,Positive*
%FSLAX46Y46*%
G04 Gerber Fmt 4.6, Leading zero omitted, Abs format (unit mm)*
G04 Created by KiCad (PCBNEW 7.0.6-7.0.6~ubuntu23.04.1) date 2023-07-23 13:01:15*
%MOMM*%
%LPD*%
G01*
G04 APERTURE LIST*
G04 #@! TA.AperFunction,ComponentPad*
%ADD10R,1.700000X1.700000*%
G04 #@! TD*
G04 #@! TA.AperFunction,ComponentPad*
%ADD11O,1.700000X1.700000*%
G04 #@! TD*
G04 #@! TA.AperFunction,ComponentPad*
%ADD12R,1.600000X1.600000*%
G04 #@! TD*
G04 #@! TA.AperFunction,ComponentPad*
%ADD13O,1.600000X1.600000*%
G04 #@! TD*
G04 #@! TA.AperFunction,Conductor*
%ADD14C,0.250000*%
G04 #@! TD*
G04 APERTURE END LIST*
D10*
X108458000Y-66040000D03*
D11*
X110998000Y-66040000D03*
X108458000Y-68580000D03*
X110998000Y-68580000D03*
X108458000Y-71120000D03*
X110998000Y-71120000D03*
X108458000Y-73660000D03*
X110998000Y-73660000D03*
X108458000Y-76200000D03*
X110998000Y-76200000D03*
X108458000Y-78740000D03*
X110998000Y-78740000D03*
X108458000Y-81280000D03*
X110998000Y-81280000D03*
X108458000Y-83820000D03*
X110998000Y-83820000D03*
X108458000Y-86360000D03*
X110998000Y-86360000D03*
X108458000Y-88900000D03*
X110998000Y-88900000D03*
X108458000Y-91440000D03*
X110998000Y-91440000D03*
X108458000Y-93980000D03*
X110998000Y-93980000D03*
X108458000Y-96520000D03*
X110998000Y-96520000D03*
X108458000Y-99060000D03*
X110998000Y-99060000D03*
X138938000Y-99060000D03*
X136398000Y-99060000D03*
X138938000Y-96520000D03*
X136398000Y-96520000D03*
X138938000Y-93980000D03*
X136398000Y-93980000D03*
X138938000Y-91440000D03*
X136398000Y-91440000D03*
X138938000Y-88900000D03*
X136398000Y-88900000D03*
X138938000Y-86360000D03*
X136398000Y-86360000D03*
X138938000Y-83820000D03*
X136398000Y-83820000D03*
X138938000Y-81280000D03*
X136398000Y-81280000D03*
X138938000Y-78740000D03*
X136398000Y-78740000D03*
X138938000Y-76200000D03*
X136398000Y-76200000D03*
X138938000Y-73660000D03*
X136398000Y-73660000D03*
X138938000Y-71120000D03*
X136398000Y-71120000D03*
X138938000Y-68580000D03*
X136398000Y-68580000D03*
X138938000Y-66040000D03*
D10*
X136398000Y-66040000D03*
D12*
X116078000Y-53848000D03*
D13*
X131318000Y-112268000D03*
X116078000Y-56388000D03*
X131318000Y-109728000D03*
X116078000Y-58928000D03*
X131318000Y-107188000D03*
X116078000Y-61468000D03*
X131318000Y-104648000D03*
X116078000Y-64008000D03*
X131318000Y-102108000D03*
X116078000Y-66548000D03*
X131318000Y-99568000D03*
X116078000Y-69088000D03*
X131318000Y-97028000D03*
X116078000Y-71628000D03*
X131318000Y-94488000D03*
X116078000Y-74168000D03*
X131318000Y-91948000D03*
X116078000Y-76708000D03*
X131318000Y-89408000D03*
X116078000Y-79248000D03*
X131318000Y-86868000D03*
X116078000Y-81788000D03*
X131318000Y-84328000D03*
X116078000Y-84328000D03*
X131318000Y-81788000D03*
X116078000Y-86868000D03*
X131318000Y-79248000D03*
X116078000Y-89408000D03*
X131318000Y-76708000D03*
X116078000Y-91948000D03*
X131318000Y-74168000D03*
X116078000Y-94488000D03*
X131318000Y-71628000D03*
X116078000Y-97028000D03*
X131318000Y-69088000D03*
X116078000Y-99568000D03*
X131318000Y-66548000D03*
X116078000Y-102108000D03*
X131318000Y-64008000D03*
X116078000Y-104648000D03*
X131318000Y-61468000D03*
X116078000Y-107188000D03*
X131318000Y-58928000D03*
X116078000Y-109728000D03*
X131318000Y-56388000D03*
X116078000Y-112268000D03*
X131318000Y-53848000D03*
D14*
X132443400Y-65166500D02*
X133316900Y-66040000D01*
X133316900Y-66040000D02*
X136398000Y-66040000D01*
X131318000Y-53848000D02*
X132443400Y-54973400D01*
X132443400Y-54973400D02*
X132443400Y-65166500D01*
X132443400Y-65166500D02*
X112024800Y-65166500D01*
X112024800Y-65166500D02*
X111690400Y-64832100D01*
X111690400Y-64832100D02*
X109665900Y-64832100D01*
X109665900Y-64832100D02*
X108458000Y-66040000D01*
X116078000Y-99568000D02*
X117220000Y-98426000D01*
X117220000Y-98426000D02*
X117220000Y-96530400D01*
X117220000Y-96530400D02*
X116592200Y-95902600D01*
X116592200Y-95902600D02*
X115112200Y-95902600D01*
X115112200Y-95902600D02*
X113290100Y-97724700D01*
X113290100Y-97724700D02*
X110509700Y-97724700D01*
X110509700Y-97724700D02*
X109633400Y-96848400D01*
X109633400Y-96848400D02*
X109633400Y-93454400D01*
X109633400Y-93454400D02*
X108889000Y-92710000D01*
X108889000Y-92710000D02*
X107957900Y-92710000D01*
X107957900Y-92710000D02*
X105459400Y-90211500D01*
X105459400Y-90211500D02*
X105459400Y-79198600D01*
X105459400Y-79198600D02*
X108458000Y-76200000D01*
X116078000Y-89408000D02*
X115410600Y-90075400D01*
X115410600Y-90075400D02*
X110472400Y-90075400D01*
X110472400Y-90075400D02*
X109633400Y-89236400D01*
X109633400Y-89236400D02*
X109633400Y-88374400D01*
X109633400Y-88374400D02*
X108889000Y-87630000D01*
X108889000Y-87630000D02*
X108045900Y-87630000D01*
X108045900Y-87630000D02*
X106810900Y-86395000D01*
X106810900Y-86395000D02*
X106810900Y-82927100D01*
X106810900Y-82927100D02*
X108458000Y-81280000D01*
X116078000Y-86868000D02*
X117207100Y-85738900D01*
X117207100Y-85738900D02*
X117207100Y-78785100D01*
X117207100Y-78785100D02*
X116528800Y-78106800D01*
X116528800Y-78106800D02*
X114171200Y-78106800D01*
X114171200Y-78106800D02*
X110998000Y-81280000D01*
X108458000Y-83820000D02*
X109665800Y-85027800D01*
X109665800Y-85027800D02*
X115378200Y-85027800D01*
X115378200Y-85027800D02*
X116078000Y-84328000D01*
X116078000Y-81788000D02*
X114046000Y-83820000D01*
X114046000Y-83820000D02*
X110998000Y-83820000D01*
X108458000Y-86360000D02*
X107270400Y-85172400D01*
X107270400Y-85172400D02*
X107270400Y-83316900D01*
X107270400Y-83316900D02*
X108037300Y-82550000D01*
X108037300Y-82550000D02*
X112776000Y-82550000D01*
X112776000Y-82550000D02*
X116078000Y-79248000D01*
X131318000Y-89408000D02*
X136398000Y-84328000D01*
X136398000Y-84328000D02*
X136398000Y-83820000D01*
X134047700Y-93980000D02*
X134047700Y-92137700D01*
X134047700Y-92137700D02*
X131318000Y-89408000D01*
X134047700Y-93980000D02*
X136398000Y-93980000D01*
X116078000Y-112268000D02*
X130189300Y-98156700D01*
X130189300Y-98156700D02*
X130189300Y-96519500D01*
X130189300Y-96519500D02*
X130806100Y-95902700D01*
X130806100Y-95902700D02*
X132125000Y-95902700D01*
X132125000Y-95902700D02*
X134047700Y-93980000D01*
X136398000Y-83820000D02*
X138938000Y-83820000D01*
X116078000Y-76708000D02*
X114933100Y-76708000D01*
X114933100Y-76708000D02*
X111631100Y-80010000D01*
X111631100Y-80010000D02*
X108062800Y-80010000D01*
X108062800Y-80010000D02*
X106360200Y-81712600D01*
X106360200Y-81712600D02*
X106360200Y-86802200D01*
X106360200Y-86802200D02*
X108458000Y-88900000D01*
X116078000Y-74168000D02*
X117660600Y-75750600D01*
X117660600Y-75750600D02*
X117660600Y-86928700D01*
X117660600Y-86928700D02*
X116451300Y-88138000D01*
X116451300Y-88138000D02*
X111760000Y-88138000D01*
X111760000Y-88138000D02*
X110998000Y-88900000D01*
X108458000Y-91440000D02*
X105909800Y-88891800D01*
X105909800Y-88891800D02*
X105909800Y-79567900D01*
X105909800Y-79567900D02*
X108007700Y-77470000D01*
X108007700Y-77470000D02*
X111401600Y-77470000D01*
X111401600Y-77470000D02*
X112567000Y-76304600D01*
X112567000Y-76304600D02*
X112567000Y-75139000D01*
X112567000Y-75139000D02*
X116078000Y-71628000D01*
X116078000Y-69088000D02*
X118129700Y-71139700D01*
X118129700Y-71139700D02*
X118129700Y-88949400D01*
X118129700Y-88949400D02*
X116401100Y-90678000D01*
X116401100Y-90678000D02*
X111760000Y-90678000D01*
X111760000Y-90678000D02*
X110998000Y-91440000D01*
X116078000Y-66548000D02*
X112661600Y-69964400D01*
X112661600Y-69964400D02*
X112661600Y-71130000D01*
X112661600Y-71130000D02*
X111496200Y-72295400D01*
X111496200Y-72295400D02*
X110698400Y-72295400D01*
X110698400Y-72295400D02*
X109633400Y-73360400D01*
X109633400Y-73360400D02*
X109633400Y-74185600D01*
X109633400Y-74185600D02*
X108889000Y-74930000D01*
X108889000Y-74930000D02*
X108050700Y-74930000D01*
X108050700Y-74930000D02*
X105009100Y-77971600D01*
X105009100Y-77971600D02*
X105009100Y-90531100D01*
X105009100Y-90531100D02*
X108458000Y-93980000D01*
X116078000Y-61468000D02*
X110833500Y-61468000D01*
X110833500Y-61468000D02*
X104558800Y-67742700D01*
X104558800Y-67742700D02*
X104558800Y-92620800D01*
X104558800Y-92620800D02*
X108458000Y-96520000D01*
X116078000Y-53848000D02*
X104108500Y-65817500D01*
X104108500Y-65817500D02*
X104108500Y-93861600D01*
X104108500Y-93861600D02*
X108036900Y-97790000D01*
X108036900Y-97790000D02*
X109728000Y-97790000D01*
X109728000Y-97790000D02*
X110998000Y-99060000D01*
X131318000Y-99568000D02*
X135730600Y-95155400D01*
X135730600Y-95155400D02*
X136891000Y-95155400D01*
X136891000Y-95155400D02*
X137668000Y-94378400D01*
X137668000Y-94378400D02*
X137668000Y-90170000D01*
X137668000Y-90170000D02*
X138938000Y-88900000D01*
X131318000Y-94488000D02*
X130187300Y-93357300D01*
X130187300Y-93357300D02*
X130187300Y-88945800D01*
X130187300Y-88945800D02*
X130995100Y-88138000D01*
X130995100Y-88138000D02*
X131712100Y-88138000D01*
X131712100Y-88138000D02*
X133703900Y-86146200D01*
X133703900Y-86146200D02*
X133703900Y-84821600D01*
X133703900Y-84821600D02*
X135975500Y-82550000D01*
X135975500Y-82550000D02*
X137668000Y-82550000D01*
X137668000Y-82550000D02*
X138938000Y-81280000D01*
X131318000Y-86868000D02*
X131318000Y-86540500D01*
X131318000Y-86540500D02*
X135187700Y-82670800D01*
X135187700Y-82670800D02*
X135187700Y-80819300D01*
X135187700Y-80819300D02*
X135997000Y-80010000D01*
X135997000Y-80010000D02*
X139381600Y-80010000D01*
X139381600Y-80010000D02*
X140129900Y-79261700D01*
X140129900Y-79261700D02*
X140129900Y-74851900D01*
X140129900Y-74851900D02*
X138938000Y-73660000D01*
X138938000Y-71120000D02*
X137573400Y-72484600D01*
X137573400Y-72484600D02*
X137573400Y-76716200D01*
X137573400Y-76716200D02*
X136819600Y-77470000D01*
X136819600Y-77470000D02*
X135971100Y-77470000D01*
X135971100Y-77470000D02*
X134708600Y-78732500D01*
X134708600Y-78732500D02*
X134708600Y-80937400D01*
X134708600Y-80937400D02*
X131318000Y-84328000D01*
X131318000Y-81788000D02*
X133931000Y-79175000D01*
X133931000Y-79175000D02*
X133931000Y-74462900D01*
X133931000Y-74462900D02*
X136098500Y-72295400D01*
X136098500Y-72295400D02*
X136887400Y-72295400D01*
X136887400Y-72295400D02*
X137573400Y-71609400D01*
X137573400Y-71609400D02*
X137573400Y-69944600D01*
X137573400Y-69944600D02*
X138938000Y-68580000D01*
X131318000Y-79248000D02*
X132507500Y-78058500D01*
X132507500Y-78058500D02*
X132507500Y-73339000D01*
X132507500Y-73339000D02*
X136091100Y-69755400D01*
X136091100Y-69755400D02*
X136923600Y-69755400D01*
X136923600Y-69755400D02*
X137668000Y-69011000D01*
X137668000Y-69011000D02*
X137668000Y-67310000D01*
X137668000Y-67310000D02*
X138938000Y-66040000D01*
M02*
