G04 #@! TF.GenerationSoftware,KiCad,Pcbnew,(6.0.2)*
G04 #@! TF.CreationDate,2023-09-27T10:31:06-07:00*
G04 #@! TF.ProjectId,Z80-FDC-V2,5a38302d-4644-4432-9d56-322e6b696361,2.0*
G04 #@! TF.SameCoordinates,Original*
G04 #@! TF.FileFunction,Soldermask,Top*
G04 #@! TF.FilePolarity,Negative*
%FSLAX46Y46*%
G04 Gerber Fmt 4.6, Leading zero omitted, Abs format (unit mm)*
G04 Created by KiCad (PCBNEW (6.0.2)) date 2023-09-27 10:31:06*
%MOMM*%
%LPD*%
G01*
G04 APERTURE LIST*
%ADD10R,1.397000X1.397000*%
%ADD11C,1.397000*%
%ADD12C,1.524000*%
%ADD13R,1.524000X1.524000*%
%ADD14C,3.200000*%
%ADD15R,1.490980X1.490980*%
%ADD16C,1.490980*%
%ADD17R,2.200000X2.200000*%
%ADD18C,2.200000*%
G04 APERTURE END LIST*
D10*
X193040000Y-101600000D03*
D11*
X190500000Y-104140000D03*
X193040000Y-104140000D03*
X190500000Y-106680000D03*
X193040000Y-106680000D03*
X190500000Y-109220000D03*
X193040000Y-111760000D03*
X193040000Y-109220000D03*
X195580000Y-111760000D03*
X195580000Y-109220000D03*
X198120000Y-111760000D03*
X198120000Y-109220000D03*
X200660000Y-111760000D03*
X200660000Y-109220000D03*
X203200000Y-111760000D03*
X203200000Y-109220000D03*
X205740000Y-111760000D03*
X208280000Y-109220000D03*
X205740000Y-109220000D03*
X208280000Y-106680000D03*
X205740000Y-106680000D03*
X208280000Y-104140000D03*
X205740000Y-104140000D03*
X208280000Y-101600000D03*
X205740000Y-101600000D03*
X208280000Y-99060000D03*
X205740000Y-99060000D03*
X208280000Y-96520000D03*
X205740000Y-93980000D03*
X205740000Y-96520000D03*
X203200000Y-93980000D03*
X203200000Y-96520000D03*
X200660000Y-93980000D03*
X200660000Y-96520000D03*
X198120000Y-93980000D03*
X198120000Y-96520000D03*
X195580000Y-93980000D03*
X195580000Y-96520000D03*
X193040000Y-93980000D03*
X190500000Y-96520000D03*
X193040000Y-96520000D03*
X190500000Y-99060000D03*
X193040000Y-99060000D03*
X190500000Y-101600000D03*
D12*
X224790000Y-106680000D03*
X224790000Y-109220000D03*
X224790000Y-111760000D03*
X224790000Y-114300000D03*
D13*
X224790000Y-116840000D03*
D11*
X214630000Y-94079060D03*
X214630000Y-98960940D03*
D12*
X226060000Y-124460000D03*
X223520000Y-124460000D03*
X220980000Y-124460000D03*
X218440000Y-124460000D03*
X215900000Y-124460000D03*
X213360000Y-124460000D03*
X210820000Y-124460000D03*
X208280000Y-124460000D03*
X205740000Y-124460000D03*
X203200000Y-124460000D03*
X200660000Y-124460000D03*
X198120000Y-124460000D03*
X195580000Y-124460000D03*
X193040000Y-124460000D03*
X190500000Y-124460000D03*
X187960000Y-124460000D03*
X185420000Y-124460000D03*
X182880000Y-124460000D03*
X180340000Y-124460000D03*
X177800000Y-124460000D03*
X175260000Y-124460000D03*
X172720000Y-124460000D03*
X170180000Y-124460000D03*
X167640000Y-124460000D03*
X165100000Y-124460000D03*
X162560000Y-124460000D03*
X160020000Y-124460000D03*
X157480000Y-124460000D03*
X154940000Y-124460000D03*
X152400000Y-124460000D03*
X149860000Y-124460000D03*
X147320000Y-124460000D03*
X144780000Y-124460000D03*
X142240000Y-124460000D03*
X139700000Y-124460000D03*
X137160000Y-124460000D03*
X134620000Y-124460000D03*
X132080000Y-124460000D03*
X129540000Y-124460000D03*
X127000000Y-124460000D03*
X226060000Y-127000000D03*
X223520000Y-127000000D03*
X220980000Y-127000000D03*
X218440000Y-127000000D03*
X215900000Y-127000000D03*
X213360000Y-127000000D03*
X210820000Y-127000000D03*
X208280000Y-127000000D03*
X205740000Y-127000000D03*
X203200000Y-127000000D03*
X200660000Y-127000000D03*
X198120000Y-127000000D03*
X195580000Y-127000000D03*
X193040000Y-127000000D03*
X190500000Y-127000000D03*
X187960000Y-127000000D03*
X185420000Y-127000000D03*
X182880000Y-127000000D03*
X180340000Y-127000000D03*
X177800000Y-127000000D03*
X175260000Y-127000000D03*
X172720000Y-127000000D03*
X170180000Y-127000000D03*
X167640000Y-127000000D03*
X165100000Y-127000000D03*
X162560000Y-127000000D03*
X160020000Y-127000000D03*
X157480000Y-127000000D03*
X154940000Y-127000000D03*
X152400000Y-127000000D03*
X149860000Y-127000000D03*
X147320000Y-127000000D03*
X144780000Y-127000000D03*
X142240000Y-127000000D03*
X139700000Y-127000000D03*
X137160000Y-127000000D03*
X134620000Y-127000000D03*
X132080000Y-127000000D03*
X129540000Y-127000000D03*
D13*
X127000000Y-127000000D03*
D14*
X130810000Y-95250000D03*
D11*
X186690000Y-101600000D03*
X186690000Y-96520000D03*
X156210000Y-118110000D03*
X156210000Y-113030000D03*
D13*
X167640000Y-85090000D03*
D12*
X165100000Y-85090000D03*
D11*
X156210000Y-101600000D03*
X156210000Y-106680000D03*
X144780000Y-90170000D03*
X149860000Y-90170000D03*
X156210000Y-90170000D03*
X156210000Y-95250000D03*
X224790000Y-93980000D03*
X219710000Y-93980000D03*
D15*
X149860000Y-94000000D03*
D16*
X149860000Y-96500000D03*
D10*
X160020000Y-107950000D03*
D11*
X162560000Y-107950000D03*
X165100000Y-107950000D03*
X167640000Y-107950000D03*
X170180000Y-107950000D03*
X172720000Y-107950000D03*
X175260000Y-107950000D03*
X177800000Y-107950000D03*
X180340000Y-107950000D03*
X182880000Y-107950000D03*
X182880000Y-100330000D03*
X180340000Y-100330000D03*
X177800000Y-100330000D03*
X175260000Y-100330000D03*
X172720000Y-100330000D03*
X170180000Y-100330000D03*
X167640000Y-100330000D03*
X165100000Y-100330000D03*
X162560000Y-100330000D03*
X160020000Y-100330000D03*
D12*
X152430480Y-110490000D03*
X132430520Y-110490000D03*
D11*
X149771316Y-83510000D03*
X149771316Y-86685000D03*
X144691316Y-83827500D03*
X144691316Y-86367500D03*
X181610000Y-88900000D03*
X181610000Y-96520000D03*
X160020000Y-88900000D03*
X162560000Y-88900000D03*
X165100000Y-88900000D03*
X167640000Y-88900000D03*
X170180000Y-88900000D03*
X172720000Y-88900000D03*
X175260000Y-88900000D03*
X175260000Y-96520000D03*
X172720000Y-96520000D03*
X170180000Y-96520000D03*
X167640000Y-96520000D03*
X165100000Y-96520000D03*
X162560000Y-96520000D03*
D10*
X160020000Y-96520000D03*
D11*
X219710000Y-115570000D03*
X219710000Y-110490000D03*
X179070000Y-96520000D03*
X179070000Y-88900000D03*
D10*
X142240000Y-88900000D03*
D11*
X142240000Y-86360000D03*
X142240000Y-83820000D03*
X142240000Y-81280000D03*
X134620000Y-81280000D03*
X134620000Y-83820000D03*
X134620000Y-86360000D03*
X134620000Y-88900000D03*
D10*
X208280000Y-88900000D03*
D11*
X210820000Y-88900000D03*
X213360000Y-88900000D03*
X215900000Y-88900000D03*
X218440000Y-88900000D03*
X220980000Y-88900000D03*
X214630000Y-106779060D03*
X214630000Y-111660940D03*
D17*
X143179730Y-110490000D03*
D18*
X138179730Y-110490000D03*
D11*
X160020000Y-111760000D03*
X162560000Y-111760000D03*
X165100000Y-111760000D03*
X167640000Y-111760000D03*
X170180000Y-111760000D03*
X172720000Y-111760000D03*
X175260000Y-111760000D03*
X177800000Y-111760000D03*
X177800000Y-119380000D03*
X175260000Y-119380000D03*
X172720000Y-119380000D03*
X170180000Y-119380000D03*
X167640000Y-119380000D03*
X165100000Y-119380000D03*
X162560000Y-119380000D03*
D10*
X160020000Y-119380000D03*
D11*
X184150000Y-88900000D03*
X184150000Y-96520000D03*
D13*
X180340000Y-83820000D03*
D12*
X180340000Y-81280000D03*
X182880000Y-83820000D03*
X182880000Y-81280000D03*
X185420000Y-83820000D03*
X185420000Y-81280000D03*
X187960000Y-83820000D03*
X187960000Y-81280000D03*
X190500000Y-83820000D03*
X190500000Y-81280000D03*
X193040000Y-83820000D03*
X193040000Y-81280000D03*
X195580000Y-83820000D03*
X195580000Y-81280000D03*
X198120000Y-83820000D03*
X198120000Y-81280000D03*
X200660000Y-83820000D03*
X200660000Y-81280000D03*
X203200000Y-83820000D03*
X203200000Y-81280000D03*
X205740000Y-83820000D03*
X205740000Y-81280000D03*
X208280000Y-83820000D03*
X208280000Y-81280000D03*
X210820000Y-83820000D03*
X210820000Y-81280000D03*
X213360000Y-83820000D03*
X213360000Y-81280000D03*
X215900000Y-83820000D03*
X215900000Y-81280000D03*
X218440000Y-83820000D03*
X218440000Y-81280000D03*
X220980000Y-83820000D03*
X220980000Y-81280000D03*
D11*
X219710000Y-103187500D03*
X219710000Y-108267500D03*
X219710000Y-99060000D03*
X224790000Y-99060000D03*
D12*
X139700000Y-93980000D03*
X142240000Y-93980000D03*
M02*
