M48
; DRILL file {KiCad (6.0.2)} date Wed Sep 27 10:31:13 2023
; FORMAT={-:-/ absolute / inch / decimal}
; #@! TF.CreationDate,2023-09-27T10:31:13-07:00
; #@! TF.GenerationSoftware,Kicad,Pcbnew,(6.0.2)
; #@! TF.FileFunction,Plated,1,2,PTH
FMAT,2
INCH
; #@! TA.AperFunction,Plated,PTH,ViaDrill
T1C0.0118
; #@! TA.AperFunction,Plated,PTH,ComponentDrill
T2C0.0315
; #@! TA.AperFunction,Plated,PTH,ComponentDrill
T3C0.0320
; #@! TA.AperFunction,Plated,PTH,ComponentDrill
T4C0.0400
; #@! TA.AperFunction,Plated,PTH,ComponentDrill
T5C0.0551
%
G90
G05
T1
X6.6244Y-3.838
X6.75Y-3.675
X6.9125Y-4.65
X7.05Y-4.875
X7.075Y-4.65
X7.1Y-4.4
X7.2Y-4.4
X7.25Y-4.95
X7.4Y-4.825
X7.8Y-4.0
X7.9Y-3.95
X7.9Y-4.1
X8.25Y-4.7
X8.325Y-3.7
X8.325Y-3.9
X8.325Y-4.1
X8.325Y-4.3
T2
X5.9Y-3.7008
X5.9Y-3.7992
T3
X5.3Y-3.2
X5.3Y-3.3
X5.3Y-3.4
X5.3Y-3.5
X5.6Y-3.2
X5.6Y-3.3
X5.6Y-3.4
X5.6Y-3.5
X5.6965Y-3.3003
X5.6965Y-3.4003
X5.7Y-3.55
X5.8965Y-3.2878
X5.8965Y-3.4128
X5.9Y-3.55
X6.15Y-3.55
X6.15Y-3.75
X6.15Y-4.0
X6.15Y-4.2
X6.15Y-4.45
X6.15Y-4.65
X6.3Y-3.5
X6.3Y-3.8
X6.3Y-3.95
X6.3Y-4.25
X6.3Y-4.4
X6.3Y-4.7
X6.4Y-3.5
X6.4Y-3.8
X6.4Y-3.95
X6.4Y-4.25
X6.4Y-4.4
X6.4Y-4.7
X6.5Y-3.5
X6.5Y-3.8
X6.5Y-3.95
X6.5Y-4.25
X6.5Y-4.4
X6.5Y-4.7
X6.6Y-3.5
X6.6Y-3.8
X6.6Y-3.95
X6.6Y-4.25
X6.6Y-4.4
X6.6Y-4.7
X6.7Y-3.5
X6.7Y-3.8
X6.7Y-3.95
X6.7Y-4.25
X6.7Y-4.4
X6.7Y-4.7
X6.8Y-3.5
X6.8Y-3.8
X6.8Y-3.95
X6.8Y-4.25
X6.8Y-4.4
X6.8Y-4.7
X6.9Y-3.5
X6.9Y-3.8
X6.9Y-3.95
X6.9Y-4.25
X6.9Y-4.4
X6.9Y-4.7
X7.0Y-3.95
X7.0Y-4.25
X7.0Y-4.4
X7.0Y-4.7
X7.05Y-3.5
X7.05Y-3.8
X7.1Y-3.95
X7.1Y-4.25
X7.15Y-3.5
X7.15Y-3.8
X7.2Y-3.95
X7.2Y-4.25
X7.25Y-3.5
X7.25Y-3.8
X7.35Y-3.8
X7.35Y-4.0
X7.5Y-3.8
X7.5Y-3.9
X7.5Y-4.0
X7.5Y-4.1
X7.5Y-4.2
X7.5Y-4.3
X7.6Y-3.7
X7.6Y-3.8
X7.6Y-3.9
X7.6Y-4.0
X7.6Y-4.1
X7.6Y-4.2
X7.6Y-4.3
X7.6Y-4.4
X7.7Y-3.7
X7.7Y-3.8
X7.7Y-4.3
X7.7Y-4.4
X7.8Y-3.7
X7.8Y-3.8
X7.8Y-4.3
X7.8Y-4.4
X7.9Y-3.7
X7.9Y-3.8
X7.9Y-4.3
X7.9Y-4.4
X8.0Y-3.7
X8.0Y-3.8
X8.0Y-4.3
X8.0Y-4.4
X8.1Y-3.7
X8.1Y-3.8
X8.1Y-3.9
X8.1Y-4.0
X8.1Y-4.1
X8.1Y-4.2
X8.1Y-4.3
X8.1Y-4.4
X8.2Y-3.5
X8.2Y-3.8
X8.2Y-3.9
X8.2Y-4.0
X8.2Y-4.1
X8.2Y-4.2
X8.2Y-4.3
X8.3Y-3.5
X8.4Y-3.5
X8.45Y-3.7039
X8.45Y-3.8961
X8.45Y-4.2039
X8.45Y-4.3961
X8.5Y-3.5
X8.6Y-3.5
X8.65Y-3.7
X8.65Y-3.9
X8.65Y-4.0625
X8.65Y-4.2625
X8.65Y-4.35
X8.65Y-4.55
X8.7Y-3.5
X8.85Y-3.7
X8.85Y-3.9
T4
X5.0Y-4.9
X5.0Y-5.0
X5.1Y-4.9
X5.1Y-5.0
X5.2Y-4.9
X5.2Y-5.0
X5.2138Y-4.35
X5.3Y-4.9
X5.3Y-5.0
X5.4Y-4.9
X5.4Y-5.0
X5.5Y-3.7
X5.5Y-4.9
X5.5Y-5.0
X5.6Y-3.7
X5.6Y-4.9
X5.6Y-5.0
X5.7Y-4.9
X5.7Y-5.0
X5.8Y-4.9
X5.8Y-5.0
X5.9Y-4.9
X5.9Y-5.0
X6.0Y-4.9
X6.0Y-5.0
X6.0012Y-4.35
X6.1Y-4.9
X6.1Y-5.0
X6.2Y-4.9
X6.2Y-5.0
X6.3Y-4.9
X6.3Y-5.0
X6.4Y-4.9
X6.4Y-5.0
X6.5Y-3.35
X6.5Y-4.9
X6.5Y-5.0
X6.6Y-3.35
X6.6Y-4.9
X6.6Y-5.0
X6.7Y-4.9
X6.7Y-5.0
X6.8Y-4.9
X6.8Y-5.0
X6.9Y-4.9
X6.9Y-5.0
X7.0Y-4.9
X7.0Y-5.0
X7.1Y-3.2
X7.1Y-3.3
X7.1Y-4.9
X7.1Y-5.0
X7.2Y-3.2
X7.2Y-3.3
X7.2Y-4.9
X7.2Y-5.0
X7.3Y-3.2
X7.3Y-3.3
X7.3Y-4.9
X7.3Y-5.0
X7.4Y-3.2
X7.4Y-3.3
X7.4Y-4.9
X7.4Y-5.0
X7.5Y-3.2
X7.5Y-3.3
X7.5Y-4.9
X7.5Y-5.0
X7.6Y-3.2
X7.6Y-3.3
X7.6Y-4.9
X7.6Y-5.0
X7.7Y-3.2
X7.7Y-3.3
X7.7Y-4.9
X7.7Y-5.0
X7.8Y-3.2
X7.8Y-3.3
X7.8Y-4.9
X7.8Y-5.0
X7.9Y-3.2
X7.9Y-3.3
X7.9Y-4.9
X7.9Y-5.0
X8.0Y-3.2
X8.0Y-3.3
X8.0Y-4.9
X8.0Y-5.0
X8.1Y-3.2
X8.1Y-3.3
X8.1Y-4.9
X8.1Y-5.0
X8.2Y-3.2
X8.2Y-3.3
X8.2Y-4.9
X8.2Y-5.0
X8.3Y-3.2
X8.3Y-3.3
X8.3Y-4.9
X8.3Y-5.0
X8.4Y-3.2
X8.4Y-3.3
X8.4Y-4.9
X8.4Y-5.0
X8.5Y-3.2
X8.5Y-3.3
X8.5Y-4.9
X8.5Y-5.0
X8.6Y-3.2
X8.6Y-3.3
X8.6Y-4.9
X8.6Y-5.0
X8.7Y-3.2
X8.7Y-3.3
X8.7Y-4.9
X8.7Y-5.0
X8.8Y-4.9
X8.8Y-5.0
X8.85Y-4.2
X8.85Y-4.3
X8.85Y-4.4
X8.85Y-4.5
X8.85Y-4.6
X8.9Y-4.9
X8.9Y-5.0
T5
X5.4401Y-4.35
X5.637Y-4.35
T0
M30
