M48
; DRILL file {KiCad 7.0.6-7.0.6~ubuntu23.04.1} date Sun 23 Jul 2023 13:03:31 BST
; FORMAT={-:-/ absolute / inch / decimal}
; #@! TF.CreationDate,2023-07-23T13:03:31+01:00
; #@! TF.GenerationSoftware,Kicad,Pcbnew,7.0.6-7.0.6~ubuntu23.04.1
; #@! TF.FileFunction,Plated,1,2,PTH
FMAT,2
INCH
; #@! TA.AperFunction,Plated,PTH,ComponentDrill
T1C0.0315
; #@! TA.AperFunction,Plated,PTH,ComponentDrill
T2C0.0394
%
G90
G05
T1
X4.57Y-2.12
X4.57Y-2.22
X4.57Y-2.32
X4.57Y-2.42
X4.57Y-2.52
X4.57Y-2.62
X4.57Y-2.72
X4.57Y-2.82
X4.57Y-2.92
X4.57Y-3.02
X4.57Y-3.12
X4.57Y-3.22
X4.57Y-3.32
X4.57Y-3.42
X4.57Y-3.52
X4.57Y-3.62
X4.57Y-3.72
X4.57Y-3.82
X4.57Y-3.92
X4.57Y-4.02
X4.57Y-4.12
X4.57Y-4.22
X4.57Y-4.32
X4.57Y-4.42
X5.17Y-2.12
X5.17Y-2.22
X5.17Y-2.32
X5.17Y-2.42
X5.17Y-2.52
X5.17Y-2.62
X5.17Y-2.72
X5.17Y-2.82
X5.17Y-2.92
X5.17Y-3.02
X5.17Y-3.12
X5.17Y-3.22
X5.17Y-3.32
X5.17Y-3.42
X5.17Y-3.52
X5.17Y-3.62
X5.17Y-3.72
X5.17Y-3.82
X5.17Y-3.92
X5.17Y-4.02
X5.17Y-4.12
X5.17Y-4.22
X5.17Y-4.32
X5.17Y-4.42
T2
X4.27Y-2.6
X4.27Y-2.7
X4.27Y-2.8
X4.27Y-2.9
X4.27Y-3.0
X4.27Y-3.1
X4.27Y-3.2
X4.27Y-3.3
X4.27Y-3.4
X4.27Y-3.5
X4.27Y-3.6
X4.27Y-3.7
X4.27Y-3.8
X4.27Y-3.9
X4.37Y-2.6
X4.37Y-2.7
X4.37Y-2.8
X4.37Y-2.9
X4.37Y-3.0
X4.37Y-3.1
X4.37Y-3.2
X4.37Y-3.3
X4.37Y-3.4
X4.37Y-3.5
X4.37Y-3.6
X4.37Y-3.7
X4.37Y-3.8
X4.37Y-3.9
X5.37Y-2.6
X5.37Y-2.7
X5.37Y-2.8
X5.37Y-2.9
X5.37Y-3.0
X5.37Y-3.1
X5.37Y-3.2
X5.37Y-3.3
X5.37Y-3.4
X5.37Y-3.5
X5.37Y-3.6
X5.37Y-3.7
X5.37Y-3.8
X5.37Y-3.9
X5.47Y-2.6
X5.47Y-2.7
X5.47Y-2.8
X5.47Y-2.9
X5.47Y-3.0
X5.47Y-3.1
X5.47Y-3.2
X5.47Y-3.3
X5.47Y-3.4
X5.47Y-3.5
X5.47Y-3.6
X5.47Y-3.7
X5.47Y-3.8
X5.47Y-3.9
T0
M30
